<?xml version="1.0" encoding="UTF-8"?><svg id="Layer_1" xmlns="http://www.w3.org/2000/svg" viewBox="0 0 442.7 374.07"><defs><style>.cls-1{fill:none;stroke:#000;stroke-miterlimit:10;}</style></defs><path class="cls-1" d="m74.47,185.62c-12.79-1.92-25.11-5.75-36.06-13.16C12.09,154.65-.49,129.33.56,98.05,2.23,48.72,37.16,9.25,85.87,1.62c47.43-7.44,90.13,22.88,97.42,71.47.14.95.38,1.88.64,3.1,24.25-5.79,48.33-5.91,72.9-.18.72-3.35,1.34-6.55,2.09-9.73C268.37,26.18,304.62-.92,345.77,1.34c45.66,2.5,83.33,33.94,93.9,78.39,12.01,50.49-19.89,97.36-71.28,104.78-.48.07-.94.28-1.17.35,12.51,73.96-9.77,133.31-76.86,169.61-54.6,29.54-110.13,24.5-159.77-12.9-51.58-38.87-67.71-92.48-56.13-155.95Z"/></svg>