<?xml version="1.0" encoding="UTF-8"?><svg id="Layer_1" xmlns="http://www.w3.org/2000/svg" viewBox="0 0 432.53 380.52"><defs><style>.cls-1{fill:none;stroke:#000;stroke-miterlimit:10;}</style></defs><path class="cls-1" d="m54.88,123.41c-7.65-1.74-15.49-.12-22.89-4.82,7.42-6.75,16.5-7.7,24.62-11.28-3.06-9.32-6.05-18.27-8.92-27.26-1.27-3.96-2.46-7.96-3.35-12.02-.34-1.56.28-3.33.46-5,1.92.56,4.55.52,5.64,1.8,4.85,5.7,9.6,11.55,13.72,17.78,3.65,5.53,6.68,11.53,9.49,17.54,1.56,3.34,3.08,5.11,7.07,4.02,4.09-1.12,8.33-1.68,13.79-2.73-4.15-11.67-7.99-22.59-11.91-33.49-5.17-14.4-10.49-28.74-15.47-43.2-.64-1.86.35-4.28.59-6.44,2.01.71,4.82.81,5.88,2.22,4.68,6.24,9.62,12.48,13.07,19.41,8.96,18.03,17.17,36.42,25.72,54.65.63,1.34,1.64,2.5,2.47,3.74.46-.12.92-.23,1.39-.35.28-3,.37-6.02.87-8.98,3.81-22.43,13.68-41.55,31.23-56.34C170.83,13.72,196.31,1.45,226.09.56c21.5-.64,42.26,4.01,62.39,11.63,12.29,4.65,23.82,10.92,33.25,19.75,11.22,10.51,22.1,21.78,28.18,36.44,3.15,7.6,5.87,15.38,9.11,23.92,3.3-6.42,6.25-12.59,9.57-18.55,5.34-9.6,10.84-19.11,16.47-28.55,1.33-2.22,3.2-4.28,5.26-5.86,1.52-1.17,3.73-1.43,5.64-2.1.39,2,1.49,4.17,1.04,5.96-2.23,9.02-4.59,18.03-7.4,26.88-4.42,13.94-9.1,27.79-13.97,41.58-1.39,3.93-.16,5.95,3.19,7.5,3.47,1.61,7.01,3.09,10.34,4.94,3.65,2.03,4.94.31,6.85-2.74,5.55-8.85,11.64-17.37,17.56-25.98.65-.94,1.54-1.77,2.46-2.47,3.61-2.71,5.35-2.09,5.9,2.38.25,2.06-.04,4.3-.62,6.31-3.01,10.54-6.19,21.03-9.34,31.64,5.4,6.12,14.88,7.62,19.83,16.04-7.71,2.92-14.91,1.33-22.76.86.68,5.09,1.26,9.94,2,14.78.95,6.23,2.36,12.41,2.89,18.67.2,2.38-1.51,4.92-2.35,7.38-1.84-1.71-4.48-3.09-5.37-5.2-4.56-10.88-8.91-21.87-12.83-33-1.64-4.66-4.65-6.83-9.06-7.17-4.58-.36-9.21-.08-14.23-.08,1.4,8.91,2.91,18.04,4.24,27.2,1.8,12.34,3.46,24.7,5.17,37.05.05.33.13.71.02.99-.93,2.31-1.9,4.61-2.86,6.91-1.82-1.61-4.47-2.88-5.3-4.9-3.68-8.91-7.04-17.98-10.14-27.12-4.06-11.97-7.77-24.05-11.83-36.7-2.02,2.59-4.14,5.16-6.11,7.84-8.16,11.09-18.89,19.05-31.12,24.95-10.45,5.04-21.1,9.73-31.88,14.04-5.04,2.01-10.6,2.7-15.9,4.08-5.56,1.45-6.34,3.03-4.5,8.64,4.78,14.54,10.61,28.84,14.06,43.68,4.03,17.31,6.49,35.03-.53,52.58-3.31,8.28-8.75,14.56-15.72,19.53-3.09,2.21-3.13,4.11-2.62,7.47,2.35,15.63.5,30.62-11.6,41.92-3.84,3.58-10.42,5.62-15.81,5.75-5.63.14-8.48-6.2-9.12-10.91-1.21-8.93-1.02-18.1-.78-27.16.08-2.91-.01-4.2-3.05-4.83-7.78-1.59-15.5-3.45-23.69-5.31-.59,4.9-1.08,10.41-1.94,15.87-2.28,14.34-8.86,25.73-22.77,31.72-8.38,3.61-17.84-1.36-20.36-10.18-5.29-18.55-3.7-36.35,6.47-52.79,3.23-5.22,8.42-9.22,13.23-14.33-.27-.89-.85-2.75-1.57-5.08-2.44.47-4.65,1.01-6.9,1.32-18.73,2.6-37.45,7.04-56.22,7.29-26.95.37-52.31-7.57-74.4-23.7-8.85-6.46-17.17-13.72-22.37-23.83-6.4-12.43-3.95-24.11,3.53-34.78,9.54-13.62,23.64-17.41,39.67-17.64,19.17-.28,36.3,5.49,51.14,16.81,10.26,7.83,18.96,17.72,28.24,26.8,10.76,10.54,22.47,19.75,36.26,27.26,1.6-4.19,2.45-8.39,4.62-11.73,7.24-11.15,15.16-21.85,22.4-32.99,4.5-6.93,8.73-14.12,12.16-21.61,2.62-5.74-.31-11.16-6.16-13.63-18.39-7.75-35.57-17.53-50.34-31.04-9.49-8.68-17.95-18.28-21.88-31.02-1.41-4.56-3.27-8.98-5.48-14.98-1.34,2.62-2.49,4.1-2.88,5.76-5.62,23.47-14.73,45.56-26.32,66.65-1.11,2.02-2.63,3.88-4.24,5.54-.94.96-3.3,2.17-3.57,1.88-1.14-1.2-2.49-2.97-2.4-4.45.3-4.62.92-9.27,1.94-13.79,4.21-18.76,8.59-37.49,12.93-56.22.91-3.92.18-5.98-4.43-4.54-1.57.49-3.34.97-4.9.73-7.45-1.12-10.51,3.31-13.21,9.23-3.8,8.32-8.15,16.4-12.51,24.44-1.32,2.44-3.18,4.75-5.3,6.52-1.19,1-3.78,1.52-5.03.88-1.05-.54-1.72-3.21-1.42-4.71,1.28-6.52,2.97-12.96,4.52-19.43,1.1-4.61,2.22-9.23,3.39-14.08Z"/></svg>