<?xml version="1.0" standalone="no"?>
<!DOCTYPE svg PUBLIC "-//W3C//DTD SVG 20010904//EN"
 "http://www.w3.org/TR/2001/REC-SVG-20010904/DTD/svg10.dtd">
<svg version="1.0" xmlns="http://www.w3.org/2000/svg"
 width="600.000000pt" height="740.000000pt" viewBox="0 0 600.000000 740.000000"
 preserveAspectRatio="xMidYMid meet">

<g transform="translate(0.000000,740.000000) scale(0.100000,-0.100000)"
fill="#000000" stroke="none">
<path d="M2130 6425 l0 -885 -435 0 -435 0 0 -1415 0 -1415 430 0 c336 0 431
-3 434 -12 4 -12 16 -1811 16 -2355 l0 -243 961 0 962 0 -7 838 c-3 460 -9
1047 -12 1305 l-7 467 437 0 436 0 0 1415 0 1415 -390 0 -390 0 0 885 0 885
-1000 0 -1000 0 0 -885z m1905 515 l0 -275 -75 0 -75 0 -3 123 -3 122 -558 0
c-307 0 -633 3 -724 7 l-166 6 -3 -129 -3 -129 -100 0 -100 0 -3 265 c-1 146
0 270 3 277 3 11 184 13 907 11 l903 -3 0 -275z m-367 -127 l122 -6 0 -119 0
-118 125 0 125 0 0 -515 0 -515 -910 0 -910 0 0 515 0 515 150 0 150 0 0 125
0 125 513 0 c283 0 569 -3 635 -7z m-1026 -1510 l3 -148 98 -3 97 -3 0 -104 0
-105 275 0 275 0 0 105 0 104 98 3 97 3 5 145 5 145 610 0 610 0 0 -425 0
-425 -422 -3 -423 -2 0 -668 0 -669 -482 -6 c-265 -4 -661 -7 -880 -7 l-398 0
0 675 0 675 -427 2 -428 3 -3 415 c-1 228 0 421 3 427 3 10 141 13 644 13
l640 0 3 -147z m856 45 l3 -98 -101 0 -100 0 0 -110 0 -110 -185 0 -184 0 -3
108 -3 107 -92 3 -93 3 0 99 0 100 378 -2 377 -3 3 -97z m-1380 -1695 l-3
-848 -380 0 -380 0 -3 848 -2 847 385 0 385 0 -2 -847z m2700 0 l-3 -848 -375
0 -375 0 -3 848 -2 847 380 0 380 0 -2 -847z m-870 -656 l3 -158 -53 3 -53 3
-2 105 -1 105 -99 5 -98 5 -3 33 c-6 63 -7 63 155 60 l148 -3 3 -158z m-398
63 l0 -90 100 0 100 0 0 -110 0 -110 85 -1 c47 -1 91 -2 98 -3 14 -1 22 -386
30 -1417 l4 -647 -221 -6 c-122 -3 -512 -7 -867 -10 l-646 -4 -7 861 c-3 474
-9 1032 -12 1239 l-7 377 104 4 c57 1 359 4 672 5 l567 2 0 -90z m420 -2680
l0 -190 -867 2 -868 3 -3 175 c-1 96 0 180 2 187 4 10 175 13 871 13 l865 0 0
-190z"/>
<path d="M2460 6235 l0 -135 234 0 235 0 3 -110 3 -110 -112 0 -113 0 0 -125
0 -125 460 0 460 0 0 125 0 125 -117 0 -118 0 3 110 3 110 225 0 224 0 0 135
0 135 -230 0 -230 0 -1 -87 c-1 -49 -2 -99 -2 -113 l-2 -25 -222 -3 -223 -2 0
115 0 115 -240 0 -240 0 0 -135z m220 5 l0 -100 -95 0 -95 0 0 100 0 100 95 0
95 0 0 -100z m225 0 l0 -95 -95 0 -95 0 -3 84 c-2 46 0 90 2 98 4 11 27 13 98
11 l93 -3 0 -95z m695 0 l0 -100 -90 0 -90 0 0 100 0 100 90 0 90 0 0 -100z
m220 0 l0 -100 -95 0 -95 0 0 93 c0 52 3 97 7 100 3 4 46 7 95 7 l88 0 0 -100z
m-452 -237 l3 -93 -206 0 -205 0 0 95 0 95 203 -2 202 -3 3 -92z m230 -250
l-3 -88 -125 -3 c-69 -1 -261 1 -427 4 l-303 6 0 84 0 84 430 0 431 0 -3 -87z"/>
</g>
</svg>
