<?xml version="1.0" encoding="UTF-8"?><svg id="Layer_1" xmlns="http://www.w3.org/2000/svg" viewBox="0 0 147.91 360.42"><defs><style>.cls-1{fill:none;stroke:#000;stroke-miterlimit:10;}</style></defs><path class="cls-1" d="m80.07,308.62,3.02,18.07,6.11,4.71-6.6-124.64,26.66-31.43,34.87-86.77-9.63,62.45-17.91,17.71,8.27,169.58c.12-.13.24-.27.35-.4,5.94,2.97,6.96,8.43,2.04,12.61-21.07,13.87-59.98,8.65-84.65,7.45-9.47-.36-37.5-10.64-19.34-20.56,10.67-3.41,21.83-5.52,32.93-7.2,11.07-.71,9.56-15.44,10.78-23.4-.83-34.64-1.99-69.28-3.36-103.9-.12-3.12-1.72-7.05-4-9.06-9.47-8.36-18.89-16.99-29.4-23.91C-23.94,131.71,9.41,60.78,25.33,10.83,29.02,1.88,57.04,2.4,66.31.72c13.48-.13,53.57-2.66,57.97,12.97,16.16,52.99,49.52,127.64-15.03,161.64l-.98.59c-14.17,11.89-26.01,16.39-24.38,37.62-.47,29.46-1.91,58.91-2.51,88.38-.15,7.22,1.41,14.48,2.35,21.71.59,4.52,3.45,5.92,7.94,6.49,11.12,2.26,23.53,2.13,33.53,7.78-.12.13-.24.27-.35.4m-20.35,18.34M3.12,122.67m6.63-57.95"/></svg>