<?xml version="1.0" encoding="UTF-8"?><svg id="Layer_1" xmlns="http://www.w3.org/2000/svg" viewBox="0 0 40.57 19.32"><defs><style>.cls-1{fill:none;stroke:#000;stroke-linecap:round;stroke-linejoin:round;stroke-width:.75px;}</style></defs><path class="cls-1" d="m1.57,9.63l1.72-.95c.09-.05.19-.09.29-.13l1.57-.6c.09-.03.18-.06.27-.08l2.23-.54,1.71-.38c.58-.13,1.08-.48,1.4-.98l.72-1.12c.03-.05.07-.1.11-.15l1.07-1.39c.1-.13.21-.25.34-.35l1.16-.98c.16-.14.35-.25.54-.34l1.53-.67c.14-.06.29-.11.45-.14l2.03-.42c.15-.03.3-.05.45-.05h1.86c.18,0,.37.02.55.07l1.82.46c.12.03.25.07.36.12l1.12.5,1.14.52c.18.08.34.18.49.3l1.28,1.05c.14.12.27.25.38.4l.96,1.29c.06.08.11.15.15.24l.36.63c.34.59.92,1,1.59,1.11l1.2.19c.07.01.13.02.2.04.37.09,1.65.43,1.82.49s1.77.69,2.19.85c.07.03.14.06.2.09l1.68.87c.13.07.25.15.37.24l.45.36c.53.43.85,1.07.85,1.75h0c0,.37-.09.73-.26,1.05l-.02.03c-.19.37-.49.67-.85.88l-.54.32-1.55,1.01c-.07.05-.15.09-.22.13l-1.47.73s-.1.05-.15.07l-2.26.93c-.1.04-.21.08-.32.1l-2.11.51c-.06.01-.11.03-.17.03l-2.28.37-2.61.55c-.09.02-.19.03-.28.04l-2.96.24c-.06,0-.12,0-.18,0h-3.19c-.11,0-.22,0-.32-.02l-3.27-.48c-.05,0-.11-.01-.16-.02l-2.37-.17c-.11,0-.22-.02-.32-.05l-3.29-.73s-2.49-.57-2.68-.64-2.68-1.53-2.68-1.53l-1.98-1.25c-.29-.19-.54-.44-.72-.73l-.29-.48c-.37-.61-.43-1.36-.16-2.01l.04-.09c.19-.48.55-.87,1-1.12Z"/></svg>